<svg xmlns="http://www.w3.org/2000/svg" viewBox="0 0 500 500"><defs><style>.cls-1{fill:none;}.cls-2{fill:#3fa9f5;}.cls-3{opacity:0.2;}.cls-4{fill:#7ac943;}.cls-4,.cls-5{stroke:#000;stroke-miterlimit:10;stroke-width:8px;}.cls-5{fill:#f2f2f2;}.cls-6{font-size:100px;font-family:Monaco;}.cls-7{fill:#333;}</style></defs><title>Asset 1</title><g id="Layer_2" data-name="Layer 2"><g id="Layer_1-2" data-name="Layer 1"><path class="cls-1" d="M500,250C500,111.93,388.07,0,250,0S0,111.93,0,250q0,6.54.33,13H499.67Q500,256.53,500,250Z"/><path class="cls-2" d="M499.67,263H.33C7.1,395,116.29,500,250,500S492.9,395,499.67,263Z"/><path d="M250,16a234.07,234.07,0,0,1,91.08,449.62A234.07,234.07,0,0,1,158.92,34.38,232.48,232.48,0,0,1,250,16m0-16C111.93,0,0,111.93,0,250S111.93,500,250,500,500,388.07,500,250,388.07,0,250,0Z"/><ellipse class="cls-3" cx="272.38" cy="354.25" rx="190.83" ry="53.43" transform="translate(-66.16 62.57) rotate(-11.7)"/><path class="cls-4" d="M94.79,250a30.51,30.51,0,0,0-24,36l17.07,81.53a30.85,30.85,0,0,0,36.46,23.69L275,360.47,245.42,219.2Z"/><path class="cls-5" d="M426.17,329.37a30.51,30.51,0,0,0,24-36.05L433.06,211.8a30.85,30.85,0,0,0-36.46-23.69L246,218.94,275.54,360.2Z"/><text class="cls-6" transform="translate(86.55 171.16)">07:00</text><path class="cls-7" d="M358.4,247.41l-4.93,1a1.12,1.12,0,0,0-.62.38L327.38,279a1.11,1.11,0,0,1-1.35.28L290.66,261.7a1.15,1.15,0,0,0-.73-.1l-3.82.79a1.14,1.14,0,0,0-.87,1.35l.19.93a1.15,1.15,0,0,0,.62.8l41.32,20.25a1.12,1.12,0,0,0,1.34-.27l27.37-32.09a1.11,1.11,0,0,1,.62-.37l.37-.07,6.76-1.4,34.38-7.13a1.13,1.13,0,0,1,1.33.89l7.08,34.17a1.14,1.14,0,0,1-.87,1.35L365,289.25a1.14,1.14,0,0,0-.87,1.35l.56,2.73a1.14,1.14,0,0,0,1.34.89l2.57-.53,43.71-9.06a1.14,1.14,0,0,0,.87-1.35L404,239.13a1.13,1.13,0,0,0-1.33-.89l-44.28,9.17Z"/></g></g></svg>